#!OML:ASF F:\VICON\USERDATA\INSTALL\rory3\rory3.ASF
:FULLY-SPECIFIED
:DEGREES
316
root 5.16691 17.9023 28.3579 -0.17113 -4.91983 -7.43065
lowerback 10.3647 1.93473 5.57727
upperback 0.706727 3.32571 2.08017
thorax -4.8823 1.53943 -1.43147
lowerneck -18.3033 -2.18683 -1.32104
upperneck 18.6648 -2.74536 0.449671
head 8.89022 -1.33263 0.017053
rclavicle -4.77704e-015 1.5704e-014
rhumerus -23.4308 -9.40589 -82.8864
rradius 30.5227
rwrist -1.01277
rhand -17.8507 23.7841
rfingers 7.12502
rthumb 8.4144 -6.02829
lclavicle -4.77704e-015 1.5704e-014
lhumerus -32.9338 0.067324 87.0364
lradius 26.9179
lwrist 10.2066
lhand -33.6658 11.9637
lfingers 7.12502
lthumb -6.85694 41.8327
rfemur -0.00822111 6.85814 35.332
rtibia 26.3665
rfoot -18.7134 -6.56337
rtoes 7.93634
lfemur -30.1925 0.950707 -11.5586
ltibia 37.7156
lfoot -5.95246 3.85978
ltoes -10.2514
317
root 5.16933 17.8864 28.5411 -0.0627839 -4.98692 -7.53926
lowerback 10.1795 2.00513 5.69561
upperback 0.760584 3.41448 2.06045
thorax -4.70842 1.58645 -1.52009
lowerneck -18.2408 -2.1839 -1.22647
upperneck 18.4932 -2.74316 0.342774
head 8.81699 -1.33721 -0.032711
rclavicle 1.11941e-014 -5.1684e-015
rhumerus -23.0621 -9.10858 -82.9604
rradius 30.8054
rwrist -1.29266
rhand -17.8534 23.6239
rfingers 7.12502
rthumb 8.41177 -6.1886
lclavicle 1.11941e-014 -5.1684e-015
lhumerus -32.6894 1.33649 86.3291
lradius 26.3564
lwrist 8.11986
lhand -31.5321 14.9657
lfingers 7.12502
lthumb -4.79691 44.8914
rfemur 0.673578 6.8279 35.4506
rtibia 26.1387
rfoot -19.3286 -6.27144
rtoes 9.54746
lfemur -29.9838 0.43567 -11.2268
ltibia 34.6228
lfoot -5.68934 4.20284
ltoes -11.4663
318
root 5.16825 17.8743 28.7188 0.0375007 -5.08739 -7.46501
lowerback 10.0711 2.10987 5.50206
upperback 0.780816 3.52178 2.04594
thorax -4.63003 1.64594 -1.43624
lowerneck -18.0014 -2.17511 -1.12978
upperneck 18.2398 -2.73957 0.255493
head 8.68475 -1.33965 -0.0732653
rclavicle -2.48419e-014 -3.18055e-015
rhumerus -22.6572 -9.16223 -82.8995
rradius 30.8214
rwrist -1.17519
rhand -17.7941 23.6303
rfingers 7.12502
rthumb 8.469 -6.17991
lclavicle -2.48419e-014 -3.18055e-015
lhumerus -32.5553 2.50665 85.7619
lradius 26.1228
lwrist 6.27001
lhand -29.0347 18.6692
lfingers 7.12502
lthumb -2.38524 48.6356
rfemur 1.34248 6.90131 35.4247
rtibia 25.7963
rfoot -19.2373 -7.9385
rtoes 8.0753
lfemur -29.658 -0.124388 -11.0481
ltibia 31.6972
lfoot -6.81402 4.61087
ltoes -6.24913
319
root 5.17717 17.8456 28.8947 0.205194 -5.07848 -7.66705
lowerback 10.0031 2.14543 5.70722
upperback 0.760059 3.59023 2.09533
thorax -4.6005 1.67652 -1.50485
lowerneck -17.9978 -2.24774 -1.32131
upperneck 18.1833 -2.83237 0.467316
head 8.67189 -1.37381 0.0184282
rclavicle 1.57785e-014 -3.03147e-014
rhumerus -22.2712 -9.02057 -82.8378
rradius 30.8041
rwrist -1.28863
rhand -17.6866 23.9081
rfingers 7.12502
rthumb 8.57279 -5.89788
lclavicle 1.57785e-014 -3.03147e-014
lhumerus -32.8461 3.15039 85.5022
lradius 26.4142
lwrist 5.8786
lhand -27.1304 21.2245
lfingers 7.12502
lthumb -0.54599 51.2036
rfemur 1.971 6.73185 35.6255
rtibia 25.4134
rfoot -19.3543 -8.30558
rtoes 7.3154
lfemur -29.7525 -0.947029 -10.4886
ltibia 28.7761
lfoot -5.74164 4.93501
ltoes -8.96722
